{
  "accessors": [
    {
      "bufferView": 0,
      "componentType": 5125,
      "count": 481650,
      "type": "SCALAR"
    },
    {
      "bufferView": 1,
      "componentType": 5126,
      "count": 105559,
      "max": [
        10.2175235748291,
        53.8488845825195,
        23.2342872619629
      ],
      "min": [
        -10.2175235748291,
        -0.188318252563477,
        -23.2514495849609
      ],
      "type": "VEC3"
    },
    {
      "bufferView": 2,
      "componentType": 5126,
      "count": 105559,
      "type": "VEC3"
    },
    {
      "bufferView": 3,
      "componentType": 5126,
      "count": 105559,
      "type": "VEC2"
    }
  ],
  "asset": {
    "generator": "Adobe Substance 3D Painter 7.2.3",
    "version": "2.0"
  },
  "bufferViews": [
    {
      "buffer": 0,
      "byteLength": 1926600,
      "target": 34963
    },
    {
      "buffer": 0,
      "byteLength": 1266708,
      "byteOffset": 1926600,
      "target": 34962
    },
    {
      "buffer": 0,
      "byteLength": 1266708,
      "byteOffset": 3193308,
      "target": 34962
    },
    {
      "buffer": 0,
      "byteLength": 844472,
      "byteOffset": 4460016,
      "target": 34962
    }
  ],
  "buffers": [
    {
      "byteLength": 5304488,
      "uri": "Robotic Arm.bin"
    }
  ],
  "images": [
    {
      "uri": "Robotic Arm_baseColor.png"
    },
    {
      "uri": "Robotic Arm_occlusionRoughnessMetallic.png"
    },
    {
      "uri": "Robotic Arm_normal.png"
    }
  ],
  "materials": [
    {
      "alphaMode": "OPAQUE",
      "name": "Robotic Arm",
      "normalTexture": {
        "index": 2
      },
      "occlusionTexture": {
        "index": 1
      },
      "pbrMetallicRoughness": {
        "baseColorTexture": {
          "index": 0
        },
        "metallicRoughnessTexture": {
          "index": 1
        }
      }
    }
  ],
  "meshes": [
    {
      "name": "Robotic Arm",
      "primitives": [
        {
          "attributes": {
            "NORMAL": 2,
            "POSITION": 1,
            "TEXCOORD_0": 3
          },
          "indices": 0,
          "material": 0,
          "mode": 4
        }
      ]
    }
  ],
  "nodes": [
    {
      "children": [
        1
      ],
      "name": "RootNode"
    },
    {
      "children": [
        2
      ],
      "name": "Robotic Arm",
      "rotation": [
        2.1855694143369e-08,
        0.0,
        0.0,
        1.0
      ],
      "scale": [
        0.393700987100601,
        0.393700987100601,
        0.393700987100601
      ]
    },
    {
      "mesh": 0,
      "name": "Robotic Arm"
    }
  ],
  "samplers": [
    {
      "magFilter": 9729,
      "minFilter": 9985,
      "wrapS": 10497,
      "wrapT": 10497
    }
  ],
  "scene": 0,
  "scenes": [
    {
      "name": "Scene",
      "nodes": [
        0
      ]
    }
  ],
  "textures": [
    {
      "sampler": 0,
      "source": 0
    },
    {
      "sampler": 0,
      "source": 1
    },
    {
      "sampler": 0,
      "source": 2
    }
  ]
}