{
  "accessors": [
    {
      "bufferView": 2,
      "componentType": 5126,
      "count": 65532,
      "max": [
        6.450613975524902,
        53.84888458251953,
        23.23428726196289
      ],
      "min": [
        -9.27863883972168,
        0.7222518920898438,
        -23.251449584960938
      ],
      "type": "VEC3"
    },
    {
      "bufferView": 2,
      "byteOffset": 786384,
      "componentType": 5126,
      "count": 65532,
      "max": [
        1.0,
        1.0,
        1.0
      ],
      "min": [
        -1.0,
        -1.0,
        -1.0
      ],
      "type": "VEC3"
    },
    {
      "bufferView": 3,
      "componentType": 5126,
      "count": 65532,
      "max": [
        1.0,
        1.0,
        1.0,
        1.0
      ],
      "min": [
        -1.0,
        -1.0,
        -1.0,
        -1.0
      ],
      "type": "VEC4"
    },
    {
      "bufferView": 1,
      "componentType": 5126,
      "count": 65532,
      "max": [
        0.988655686378479,
        0.9908822774887085
      ],
      "min": [
        0.009105962701141834,
        0.009117722511291504
      ],
      "type": "VEC2"
    },
    {
      "bufferView": 1,
      "byteOffset": 524256,
      "componentType": 5126,
      "count": 65532,
      "max": [
        0.988655686378479,
        0.9908822774887085
      ],
      "min": [
        0.009105962701141834,
        0.009117722511291504
      ],
      "type": "VEC2"
    },
    {
      "bufferView": 1,
      "byteOffset": 1048512,
      "componentType": 5126,
      "count": 65532,
      "max": [
        0.988655686378479,
        0.9908822774887085
      ],
      "min": [
        0.009105962701141834,
        0.009117722511291504
      ],
      "type": "VEC2"
    },
    {
      "bufferView": 1,
      "byteOffset": 1572768,
      "componentType": 5126,
      "count": 65532,
      "max": [
        0.988655686378479,
        0.9908822774887085
      ],
      "min": [
        0.009105962701141834,
        0.009117722511291504
      ],
      "type": "VEC2"
    },
    {
      "bufferView": 1,
      "byteOffset": 2097024,
      "componentType": 5126,
      "count": 65532,
      "max": [
        0.988655686378479,
        0.9908822774887085
      ],
      "min": [
        0.009105962701141834,
        0.009117722511291504
      ],
      "type": "VEC2"
    },
    {
      "bufferView": 0,
      "componentType": 5125,
      "count": 303570,
      "type": "SCALAR"
    },
    {
      "bufferView": 2,
      "byteOffset": 1572768,
      "componentType": 5126,
      "count": 37577,
      "max": [
        10.217523574829102,
        44.83644104003906,
        6.351433753967285
      ],
      "min": [
        -10.217523574829102,
        -0.18831825256347656,
        -19.779638290405273
      ],
      "type": "VEC3"
    },
    {
      "bufferView": 2,
      "byteOffset": 2023692,
      "componentType": 5126,
      "count": 37577,
      "max": [
        1.0,
        1.0,
        1.0
      ],
      "min": [
        -1.0,
        -1.0,
        -1.0
      ],
      "type": "VEC3"
    },
    {
      "bufferView": 3,
      "byteOffset": 1048512,
      "componentType": 5126,
      "count": 37577,
      "max": [
        0.9999995827674866,
        1.0,
        1.0,
        -1.0
      ],
      "min": [
        -1.0,
        -1.0,
        -1.0,
        -1.0
      ],
      "type": "VEC4"
    },
    {
      "bufferView": 1,
      "byteOffset": 2621280,
      "componentType": 5126,
      "count": 37577,
      "max": [
        0.9884342551231384,
        0.9908822774887085
      ],
      "min": [
        0.009105962701141834,
        0.009199976921081543
      ],
      "type": "VEC2"
    },
    {
      "bufferView": 1,
      "byteOffset": 2921896,
      "componentType": 5126,
      "count": 37577,
      "max": [
        0.9884342551231384,
        0.9908822774887085
      ],
      "min": [
        0.009105962701141834,
        0.009199976921081543
      ],
      "type": "VEC2"
    },
    {
      "bufferView": 1,
      "byteOffset": 3222512,
      "componentType": 5126,
      "count": 37577,
      "max": [
        0.9884342551231384,
        0.9908822774887085
      ],
      "min": [
        0.009105962701141834,
        0.009199976921081543
      ],
      "type": "VEC2"
    },
    {
      "bufferView": 1,
      "byteOffset": 3523128,
      "componentType": 5126,
      "count": 37577,
      "max": [
        0.9884342551231384,
        0.9908822774887085
      ],
      "min": [
        0.009105962701141834,
        0.009199976921081543
      ],
      "type": "VEC2"
    },
    {
      "bufferView": 1,
      "byteOffset": 3823744,
      "componentType": 5126,
      "count": 37577,
      "max": [
        0.9884342551231384,
        0.9908822774887085
      ],
      "min": [
        0.009105962701141834,
        0.009199976921081543
      ],
      "type": "VEC2"
    },
    {
      "bufferView": 0,
      "byteOffset": 1214280,
      "componentType": 5125,
      "count": 178059,
      "type": "SCALAR"
    }
  ],
  "asset": {
    "extras": {
      "author": "The Motion Tree (https://sketchfab.com/themotiontree)",
      "license": "CC-BY-4.0 (http://creativecommons.org/licenses/by/4.0/)",
      "source": "https://sketchfab.com/3d-models/robotic-arm-4e1314b815a34eccbdc79986b5745660",
      "title": "Robotic Arm"
    },
    "generator": "Sketchfab-12.65.0",
    "version": "2.0"
  },
  "bufferViews": [
    {
      "buffer": 0,
      "byteLength": 1926516,
      "name": "floatBufferViews",
      "target": 34963
    },
    {
      "buffer": 0,
      "byteLength": 4124360,
      "byteOffset": 1926516,
      "byteStride": 8,
      "name": "floatBufferViews",
      "target": 34962
    },
    {
      "buffer": 0,
      "byteLength": 2474616,
      "byteOffset": 6050876,
      "byteStride": 12,
      "name": "floatBufferViews",
      "target": 34962
    },
    {
      "buffer": 0,
      "byteLength": 1649744,
      "byteOffset": 8525492,
      "byteStride": 16,
      "name": "floatBufferViews",
      "target": 34962
    }
  ],
  "buffers": [
    {
      "byteLength": 10175236,
      "uri": "scene.bin"
    }
  ],
  "images": [
    {
      "uri": "textures/Robotic_Arm_baseColor.png"
    },
    {
      "uri": "textures/Robotic_Arm_metallicRoughness.png"
    },
    {
      "uri": "textures/Robotic_Arm_normal.png"
    }
  ],
  "materials": [
    {
      "name": "Robotic_Arm",
      "normalTexture": {
        "index": 2,
        "texCoord": 2
      },
      "occlusionTexture": {
        "index": 1
      },
      "pbrMetallicRoughness": {
        "baseColorTexture": {
          "index": 0
        },
        "metallicRoughnessTexture": {
          "index": 1,
          "texCoord": 1
        }
      }
    }
  ],
  "meshes": [
    {
      "name": "Object_0",
      "primitives": [
        {
          "attributes": {
            "NORMAL": 1,
            "POSITION": 0,
            "TANGENT": 2,
            "TEXCOORD_0": 3,
            "TEXCOORD_1": 4,
            "TEXCOORD_2": 5,
            "TEXCOORD_3": 6,
            "TEXCOORD_4": 7
          },
          "indices": 8,
          "material": 0,
          "mode": 4
        }
      ]
    },
    {
      "name": "Object_1",
      "primitives": [
        {
          "attributes": {
            "NORMAL": 10,
            "POSITION": 9,
            "TANGENT": 11,
            "TEXCOORD_0": 12,
            "TEXCOORD_1": 13,
            "TEXCOORD_2": 14,
            "TEXCOORD_3": 15,
            "TEXCOORD_4": 16
          },
          "indices": 17,
          "material": 0,
          "mode": 4
        }
      ]
    }
  ],
  "nodes": [
    {
      "children": [
        1
      ],
      "matrix": [
        0.10000000149011612,
        0.0,
        0.0,
        0.0,
        0.0,
        2.2204460823375376e-17,
        -0.10000000149011612,
        0.0,
        0.0,
        0.10000000149011612,
        2.2204460823375376e-17,
        0.0,
        0.0,
        0.0,
        0.0,
        1.0
      ],
      "name": "Sketchfab_model"
    },
    {
      "children": [
        2
      ],
      "name": "root"
    },
    {
      "children": [
        3
      ],
      "matrix": [
        1.0,
        0.0,
        0.0,
        0.0,
        0.0,
        2.220446049250313e-16,
        1.0,
        0.0,
        0.0,
        -1.0,
        2.220446049250313e-16,
        0.0,
        0.0,
        0.0,
        0.0,
        1.0
      ],
      "name": "GLTF_SceneRootNode"
    },
    {
      "children": [
        4
      ],
      "name": "RootNode_0"
    },
    {
      "children": [
        5
      ],
      "matrix": [
        0.3937009871006012,
        0.0,
        0.0,
        0.0,
        0.0,
        0.3937009871006008,
        1.7209216716026373e-08,
        0.0,
        0.0,
        -1.7209216716026373e-08,
        0.3937009871006008,
        0.0,
        0.0,
        0.0,
        0.0,
        1.0
      ],
      "name": "Robotic Arm_1"
    },
    {
      "children": [
        6,
        7
      ],
      "name": "Robotic Arm_2"
    },
    {
      "mesh": 0,
      "name": "Object_6"
    },
    {
      "mesh": 1,
      "name": "Object_7"
    }
  ],
  "samplers": [
    {
      "magFilter": 9729,
      "minFilter": 9987,
      "wrapS": 10497,
      "wrapT": 10497
    }
  ],
  "scene": 0,
  "scenes": [
    {
      "name": "Sketchfab_Scene",
      "nodes": [
        0
      ]
    }
  ],
  "textures": [
    {
      "sampler": 0,
      "source": 0
    },
    {
      "sampler": 0,
      "source": 1
    },
    {
      "sampler": 0,
      "source": 2
    }
  ]
}
